{"title":"Arrow S02E11 - 720p HDTV x264 [MKV,AC3,5.1] Ehhhh","uid":9519424,"size":438733063,"categoryP":"video","categoryS":"hd___tv_shows","magnet":"?xt=urn:btih:4147823c2f26fb6c74b36599dcc55b963a2f8d0c&amp;dn=Arrow+S02E11+-+720p+HDTV+x264+%5BMKV%2CAC3%2C5.1%5D+Ehhhh&amp;tr=udp%3A%2F%2Ftracker.openbittorrent.com%3A80&amp;tr=udp%3A%2F%2Fopen.demonii.com%3A1337&amp;tr=udp%3A%2F%2Ftracker.coppersurfer.tk%3A6969&amp;tr=udp%3A%2F%2Fexodus.desync.com%3A6969","seeders":1,"leechers":0,"uploader":"mynameisurlz","files":-1,"time":1390599114,"description":" imageimage\n\nOliver is conflicted after Laurel reaches out to the Arrow asking him to investigate Sebastian Blood. Oliver is unsure whether to believe her accusations against the man he has publicly supported for mayor, but decides to trust Laurel. However, when the pair gets too close to the truth, Sebastian exposes Laurel's drug addiction and has her arrested. Meanwhile, Roy reveals his new super-strength to Sin who wants to test out his abilities. Unfortunately, Roy isn't able to contain his rage once unleashed and almost kills a man. Back on the island, Oliver is surprised when Sarah reveals a secret about Laurel.\n\n\nGeneral\nFormat : Matroska\nFormat version : Version 4 / Version 2\nFile size : 418 MiB\nDuration : 42mn 5s\nOverall bit rate : 1 387 Kbps\nEncoded date : UTC 2014-01-24 10:55:46\nWriting application : mkvmerge v6.2.0 ('Promised Land') built on Apr 28 2013 12:22:01\nWriting library : libebml v1.3.0 + libmatroska v1.4.0\n\nVideo\nID : 1\nFormat : AVC\nFormat/Info : Advanced Video Codec\nFormat profile : &lt;a class=&quot;__cf_email__&quot; href=&quot;/cdn-cgi/l/email-protection&quot; data-cfemail=&quot;e7af8e808fa7abd3c9d6&quot;&gt;[email&amp;#160;protected]&lt;/a&gt;&lt;script cf-hash='f9e31' type=&quot;text/javascript&quot;&gt;\n/* &lt;![CDATA[ */!function(){try{var t=&quot;currentScript&quot;in document?document.currentScript:function(){for(var t=document.getElementsByTagName(&quot;script&quot;),e=t.length;e--;)if(t[e].getAttribute(&quot;cf-hash&quot;))return t[e]}();if(t&amp;&amp;t.previousSibling){var e,r,n,i,c=t.previousSibling,a=c.getAttribute(&quot;data-cfemail&quot;);if(a){for(e=&quot;&quot;,r=parseInt(a.substr(0,2),16),n=2;a.length-n;n+=2)i=parseInt(a.substr(n,2),16)^r,e+=String.fromCharCode(i);e=document.createTextNode(e),c.parentNode.replaceChild(e,c)}}}catch(u){}}();/* ]]&gt; */&lt;/script&gt;\nFormat settings, CABAC : Yes\nFormat settings, ReFrames : 14 frames\nCodec ID : V_MPEG4/ISO/AVC\nDuration : 42mn 5s\nBit rate : 1 010 Kbps\nWidth : 1 280 pixels\nHeight : 720 pixels\nDisplay aspect ratio : 16:9\nFrame rate mode : Constant\nFrame rate : 23.976 fps\nColor space : YUV\nChroma subsampling : 4:2:0\nBit depth : 8 bits\nScan type : Progressive\nBits/(Pixel*Frame) : 0.046\nStream size : 294 MiB (70%)\nWriting library : x264 core 138 r2359+704+48 3f879a0 tMod [8-bit@all X86]\nDefault : Yes\nForced : No\n\nAudio\nID : 2\nFormat : AC-3\nFormat/Info : Audio Coding 3\nMode extension : CM (complete main)\nFormat settings, Endianness : Big\nCodec ID : A_AC3\nDuration : 42mn 5s\nBit rate mode : Constant\nBit rate : 384 Kbps\nChannel(s) : 6 channels\nChannel positions : Front: L C R, Side: L R, LFE\nSampling rate : 48.0 KHz\nBit depth : 16 bits\nCompression mode : Lossy\nStream size : 116 MiB (28%)\nDefault : Yes\nForced : No\n\n\nimageimage ","torrent":{"xt":"urn:btih:4147823c2f26fb6c74b36599dcc55b963a2f8d0c","amp;dn":"Arrow+S02E11+-+720p+HDTV+x264+%5BMKV%2CAC3%2C5.1%5D+Ehhhh","amp;tr":["udp%3A%2F%2Ftracker.openbittorrent.com%3A80","udp%3A%2F%2Fopen.demonii.com%3A1337","udp%3A%2F%2Ftracker.coppersurfer.tk%3A6969","udp%3A%2F%2Fexodus.desync.com%3A6969"],"infoHash":"4147823c2f26fb6c74b36599dcc55b963a2f8d0c","infoHashBuffer":{"type":"Buffer","data":[65,71,130,60,47,38,251,108,116,179,101,153,220,197,91,150,58,47,141,12]},"announce":[],"urlList":[]}}